# xmcd
# 
# Track frame offsets:
#     150
#     19489
#     31577
#     51413
#     67527
#     86936
#     110076
#     122827
#     138036
#     149577
#     163779
# 
# Disc length: 2426
# 
# Revision: 0
# Processed by: cddbd v1.5.2PL0 Copyright (c) Steve Scherf et al.
# Submitted via: fre:ac v1.0.27
# 
DISCID=9a09780b
DTITLE=Ernesto Snajer - Toque argentino
DYEAR=2003
DGENRE=Flocklore argentino
TTITLE0=Elgua
TTITLE1=Los malerva
TTITLE2=El poste
TTITLE3=El estaño de los peces
TTITLE4=El pedaleo
TTITLE5=Perfume de jazmín
TTITLE6=La rabona
TTITLE7=Puré ´n´ city
TTITLE8=Más que amor
TTITLE9=El zapateo
TTITLE10=Toque argentino
EXTD=
EXTT0=
EXTT1=
EXTT2=
EXTT3=
EXTT4=
EXTT5=
EXTT6=
EXTT7=
EXTT8=
EXTT9=
EXTT10=
PLAYORDER=
